<svg xmlns="http://www.w3.org/2000/svg" width="129" height="57" viewBox="0 0 129 57" fill="none"><path d="M87.8172 11.4663C87.8172 21.9926 93.8387 32.0678 96.2473 35.5265C96.8495 36.3535 97.7527 36.8798 98.7312 36.8798H114.086C115.065 36.8798 116.043 36.3535 116.57 35.5265C118.978 31.9926 125 21.9174 125 11.4663H87.8172Z" fill="#43A0D6"></path><path d="M89.172 37.707C89.0968 37.6318 89.0215 37.5566 88.9462 37.4062C89.0215 37.5566 89.0968 37.6318 89.172 37.707Z" fill="white"></path><path d="M75.7742 15.8271H79.3871C79.7634 17.9324 80.4409 20.7144 81.5699 23.8723C80.4409 20.7144 79.7634 17.9324 79.3871 15.8271H75.7742Z" fill="white"></path><path d="M85.1828 46.0528C86.086 44.549 86.914 43.0453 87.6667 41.5415C86.914 43.1205 86.086 44.6242 85.1828 46.0528Z" fill="white"></path><path d="M89.4731 37.9321C89.0215 38.8344 88.5699 39.8118 88.1183 40.7141C88.5699 39.8118 89.0215 38.9096 89.4731 37.9321Z" fill="white"></path><path d="M101.215 19.0603C102.344 14.549 102.72 11.5415 102.72 11.5415H97.3764C97.0753 14.2483 96.4731 17.2558 95.7204 20.4137C95.6452 20.6392 95.5699 20.8648 95.5699 21.0904C94.8172 23.9475 93.914 26.955 92.785 29.9626C92.4086 31.0152 91.957 32.0678 91.5807 33.1205C91.5054 33.0453 91.4301 32.9701 91.4301 32.8949C91.3548 32.8197 91.3548 32.8197 91.2796 32.7445C90.3764 31.2408 88.9462 28.8347 87.6667 25.6017C87.6667 25.5265 87.5914 25.4513 87.5914 25.3761C87.4409 24.925 87.2151 24.4738 87.0645 23.9475C85.785 20.4889 84.6559 16.2783 84.2043 11.5415H75.7742V15.752H79.3871C79.7634 17.8573 80.4409 20.6392 81.5699 23.7971C83 27.8573 85.1828 32.4438 88.5699 36.8799C88.7204 37.0302 88.871 37.2558 89.0215 37.4062C89.0968 37.4814 89.1721 37.6317 89.2473 37.7069C89.3226 37.7821 89.3979 37.8573 89.4731 37.9325C89.0215 38.8347 88.5699 39.8122 88.1183 40.7144C87.9678 41.0152 87.8172 41.2407 87.6667 41.5415C86.8387 43.0453 86.0108 44.6242 85.1828 46.0528H90.0753C91.129 44.3986 92.1828 42.7445 93.086 41.0152C94.1398 39.0603 95.043 37.1054 95.871 35.2257C96.9247 32.7445 97.828 30.3385 98.5807 28.0077C98.7312 27.5565 98.8817 27.1054 99.0323 26.6543C99.1828 26.2032 99.3333 25.752 99.4839 25.3009C99.8602 23.9475 100.237 22.6693 100.538 21.4663C100.763 20.7144 100.914 19.9626 101.065 19.2859C101.14 19.2107 101.14 19.1355 101.215 19.0603Z" fill="white"></path><path d="M89.0968 51.7668C89.0968 53.5713 87.6667 54.9999 85.8602 54.9999C84.0538 54.9999 82.6237 53.5713 82.6237 51.7668C82.6237 49.9623 84.0538 48.5337 85.8602 48.5337C87.5914 48.5337 89.0968 49.9623 89.0968 51.7668Z" fill="white"></path><path d="M118.376 51.7668C118.376 53.5713 116.946 54.9999 115.14 54.9999C113.333 54.9999 111.903 53.5713 111.903 51.7668C111.903 49.9623 113.333 48.5337 115.14 48.5337C116.946 48.5337 118.376 49.9623 118.376 51.7668Z" fill="white"></path><path d="M25.4194 38.6842C20 38.6842 16.8387 35.9023 16.8387 29.3609V15.6767H13V11.391H16.8387V5.30075L22.1828 5V11.391H28.8065V15.6767H22.1828V29.2857C22.1828 32.8195 23.6882 34.1729 26.3226 34.1729C27.4516 34.1729 28.5806 34.0226 29.4086 33.797L29.7097 38.0827C28.4301 38.4586 27.0753 38.6842 25.4194 38.6842Z" fill="white"></path><path d="M46.2688 10.7144C47.7742 10.7144 49.0538 10.8647 50.0323 11.0903L49.2796 15.6016C48.4516 15.3008 47.4731 15.2256 46.6452 15.2256C44.0108 15.2256 41.9785 15.8271 40.4731 16.579V38.0828H35.129V13.2707C37.914 11.767 42.2043 10.7144 46.2688 10.7144Z" fill="white"></path><path d="M62.6774 38.6843C55.6774 38.6843 52.2151 35.3008 52.2151 30.7144C52.2151 25.2256 56.6559 22.5189 62.6774 22.5189C64.4839 22.5189 66.6667 22.7444 68.3226 23.1204V20.9399C68.3226 17.2557 66.2903 15.2256 62.0753 15.2256C59.5914 15.2256 57.0323 15.6768 54.9247 16.579L53.871 12.2933C56.0538 11.3911 59.4409 10.7896 62.6022 10.7896C69.9032 10.7896 73.5161 14.549 73.5161 21.2407V36.3535C71.3333 37.5565 67.6452 38.6843 62.6774 38.6843ZM68.2473 33.5715V26.6542C66.7419 26.2783 65.086 26.0527 63.2796 26.0527C59.9677 26.0527 57.5591 27.1805 57.5591 30.4888C57.5591 33.2708 59.5914 34.6993 63.129 34.6993C65.5376 34.6993 67.2688 34.173 68.2473 33.5715Z" fill="white"></path></svg>